# xmcd
#
# Track frame offsets:
#	150
#	19650
#	33975
#	65400
#	95025
#	126169
#	146644
#
# Disc length: 2243 seconds
#
# Revision: 1
# Processed by: cddbd v1.5.1PL2 Copyright (c) Steve Scherf et al.
# Submitted via: EasyCDDAExtractor 9.0.0.1
#
DISCID=5e08c107
DTITLE=Blue Oyster Cult - Old Waldorf San Fransisco 17-03-79 Early Show Disc 2
DYEAR=1973
DGENRE=Hard Rock
TTITLE0=ME 262
TTITLE1=Dr Music
TTITLE2=Hot Rails To Hell
TTITLE3=Godzilla
TTITLE4=Born To Be Wild
TTITLE5=Harvester Of Eyes
TTITLE6=(Don't Fear) The Reaper
EXTD=
EXTT0=
EXTT1=
EXTT2=
EXTT3=
EXTT4=
EXTT5=
EXTT6=
PLAYORDER=
